<?xml version="1.0" encoding="utf-8"?>
<!-- Generator: Adobe Illustrator 17.0.0, SVG Export Plug-In . SVG Version: 6.00 Build 0)  -->
<!DOCTYPE svg PUBLIC "-//W3C//DTD SVG 1.1//EN" "http://www.w3.org/Graphics/SVG/1.1/DTD/svg11.dtd">
<svg version="1.1" xmlns="http://www.w3.org/2000/svg" xmlns:xlink="http://www.w3.org/1999/xlink" x="0px" y="0px"
	 width="765.965px" height="113.386px" viewBox="0 226.583 765.965 113.386" enable-background="new 0 226.583 765.965 113.386"
	 xml:space="preserve">
<g id="Ebene_1">
	<path fill="#FFFFFF" d="M92.032,283.276c0-13.606-10.394-24-25.701-24H49.512v48.378h16.819
		C81.638,307.276,92.032,296.882,92.032,283.276L92.032,283.276z M86.362,283.276c0,10.583-7.748,19.087-20.032,19.087H54.992
		v-38.173h11.339C78.614,264.189,86.362,272.693,86.362,283.276L86.362,283.276z M174.614,259.276h-34.961v48.378h35.15v-4.913
		h-29.669v-17.008h26.268v-4.913h-26.268v-16.63h29.48L174.614,259.276L174.614,259.276z M240.567,264.189h16.063v-4.913h-37.795
		v4.913h16.063v43.087h5.48v-43.087C240.378,264.189,240.567,264.189,240.567,264.189z M337.134,259.276h-34.961v48.378h35.15
		v-4.913h-29.669v-17.008h26.268v-4.913h-26.268v-16.63h29.48C337.134,264.189,337.134,259.276,337.134,259.276z M424.253,300.662
		v-19.276h-20.032v4.913h14.74v12.095c-3.402,2.646-8.315,4.724-13.795,4.724c-11.717,0-19.087-8.693-19.087-20.221
		c0-10.961,7.748-19.654,18.331-19.654c6.803,0,10.961,2.268,14.74,5.48l3.402-4.157c-4.913-4.158-10.016-6.425-18.142-6.425
		c-14.551,0-24.189,11.717-24.189,24.945c0,13.795,9.26,24.945,24.567,24.945C412.914,308.221,419.717,304.819,424.253,300.662
		L424.253,300.662z M519.308,283.276c0-13.417-9.827-24.945-24.567-24.945c-14.74,0-24.756,11.528-24.756,24.945
		s9.827,24.945,24.567,24.945S519.308,296.693,519.308,283.276z M513.639,283.276c0,11.15-7.937,19.654-18.898,19.654
		c-11.15,0-19.087-8.882-19.087-20.032s7.937-19.654,18.898-19.654C505.702,263.244,513.639,272.315,513.639,283.276z"/>
</g>
<g id="Ebene_2">
	<rect x="566.93" y="278.778" fill="none" width="508" height="122.382"/>
	
		<text transform="matrix(1 0 0 1 566.93 305.4896)" fill="#FFFFFF" font-family="'Montserrat-Medium'" font-size="36" letter-spacing="17">STORE</text>
</g>
</svg>
